HIERARCHY
ROOT Hips
{
	OFFSET	0.00	0.00	0.00
	CHANNELS 6 Xposition Yposition Zposition Zrotation Xrotation Yrotation
	JOINT LeftUpLeg
	{
		OFFSET	 0.126116	-0.065224	 0.014019
		CHANNELS 3 Zrotation Xrotation Yrotation
		JOINT LeftLeg
		{
			OFFSET	 0.000000	 0.569914	 0.000000
			CHANNELS 3 Zrotation Xrotation Yrotation
			JOINT LeftFoot
			{
				OFFSET	 0.000000	 0.544423	 0.000000
				CHANNELS 3 Zrotation Xrotation Yrotation
				JOINT LeftToeBase
				{
					OFFSET	 0.000000	 0.207117	 0.000000
					CHANNELS 3 Zrotation Xrotation Yrotation
					End Site
					{
						OFFSET	 0.000000	 0.207117	 0.000000
					}
				}
			}
		}
	}
	JOINT RightUpLeg
	{
		OFFSET	-0.124023	-0.065224	 0.008373
		CHANNELS 3 Zrotation Xrotation Yrotation
		JOINT RightLeg
		{
			OFFSET	 0.000000	 0.570047	 0.000000
			CHANNELS 3 Zrotation Xrotation Yrotation
			JOINT RightFoot
			{
				OFFSET	 0.000000	 0.544354	 0.000000
				CHANNELS 3 Zrotation Xrotation Yrotation
				JOINT RightToeBase
				{
					OFFSET	 0.000000	 0.207540	 0.000000
					CHANNELS 3 Zrotation Xrotation Yrotation
					End Site
					{
						OFFSET	 0.000000	 0.207540	 0.000000
					}
				}
			}
		}
	}
	JOINT Spine
	{
		OFFSET	 0.000184	 0.117403	 0.007763
		CHANNELS 3 Zrotation Xrotation Yrotation
		JOINT Spine1
		{
			OFFSET	 0.000000	 0.137269	 0.000000
			CHANNELS 3 Zrotation Xrotation Yrotation
			JOINT Spine2
			{
				OFFSET	 0.000000	 0.156879	 0.000000
				CHANNELS 3 Zrotation Xrotation Yrotation
				JOINT LeftShoulder
				{
					OFFSET	 0.080501	 0.160143	 0.002496
					CHANNELS 3 Zrotation Xrotation Yrotation
					JOINT LeftArm
					{
						OFFSET	 0.000000	 0.164363	 0.000000
						CHANNELS 3 Zrotation Xrotation Yrotation
						JOINT LeftForeArm
						{
							OFFSET	 0.000000	 0.364576	 0.000000
							CHANNELS 3 Zrotation Xrotation Yrotation
							JOINT LeftHand
							{
								OFFSET	 0.000000	 0.360812	 0.000000
								CHANNELS 3 Zrotation Xrotation Yrotation
								JOINT LeftHandIndex1
								{
									OFFSET	 0.000000	 0.086006	 0.000000
									CHANNELS 3 Zrotation Xrotation Yrotation
									JOINT LeftHandIndex2
									{
										OFFSET	 0.000000	 0.047237	 0.000000
										CHANNELS 3 Zrotation Xrotation Yrotation
										JOINT LeftHandIndex3
										{
											OFFSET	-0.004284	 0.038165	 0.000551
											CHANNELS 3 Zrotation Xrotation Yrotation
											End Site
											{
												OFFSET	-0.004284	 0.038165	 0.000551
											}
										}
									}
								}
							}
						}
					}
				}
				JOINT Neck
				{
					OFFSET	 0.000000	 0.176489	 0.000000
					CHANNELS 3 Zrotation Xrotation Yrotation
					JOINT Head
					{
						OFFSET	 0.000000	 0.077941	 0.001747
						CHANNELS 3 Zrotation Xrotation Yrotation
						End Site
						{
							OFFSET	 0.000000	 0.077941	 0.001747
						}
					}
				}
				JOINT RightShoulder
				{
					OFFSET	-0.080363	 0.159706	-0.000306
					CHANNELS 3 Zrotation Xrotation Yrotation
					JOINT RightArm
					{
						OFFSET	 0.000000	 0.164196	 0.000000
						CHANNELS 3 Zrotation Xrotation Yrotation
						JOINT RightForeArm
						{
							OFFSET	 0.000000	 0.365611	 0.000000
							CHANNELS 3 Zrotation Xrotation Yrotation
							JOINT RightHand
							{
								OFFSET	 0.000000	 0.360648	 0.000000
								CHANNELS 3 Zrotation Xrotation Yrotation
								JOINT RightHandIndex1
								{
									OFFSET	 0.000000	 0.069977	 0.000000
									CHANNELS 3 Zrotation Xrotation Yrotation
									JOINT RightHandIndex2
									{
										OFFSET	 0.000000	 0.052305	 0.000000
										CHANNELS 3 Zrotation Xrotation Yrotation
										JOINT RightHandIndex3
										{
											OFFSET	 0.009002	 0.042196	 0.000782
											CHANNELS 3 Zrotation Xrotation Yrotation
											End Site
											{
												OFFSET	 0.009002	 0.042196	 0.000782
											}
										}
									}
								}
							}
						}
					}
				}
			}
		}
	}
}
MOTION
Frames:    9
Frame Time: 0.03333334
-0.005920	 1.233019	 0.011375	 1.704622	 0.222869	 172.281700	-160.642100	 13.227190	-26.827820	 5.622334	-20.214220	 3.116566	-12.153290	 63.208590	 4.215620	 1.162002	 26.688930	-2.659649	 173.676900	 10.961810	 18.343230	-2.569930	-30.620750	 7.779649	 13.610040	 77.760750	-9.819706	-1.288970	 28.372180	 2.710508	 2.250547	 6.197918	 3.549401	-1.043798	 3.489518	 1.970361	 3.105633	-2.925731	-2.648121	-113.187100	 6.485077	 92.935880	 19.882050	 46.983300	 4.720866	 4.933437	-0.254971	-0.072816	 19.956330	 16.053440	 17.217120	 0.567638	 8.632229	-0.355698	-5.949543	 13.582350	 1.518463	 4.986297	-3.506171	-0.334549	 3.185595	-6.825843	 0.872371	-1.243343	-5.466110	 2.669256	 123.453600	 10.374460	-96.382860	-6.766249	 40.033140	-2.343317	-5.055867	-0.198809	 0.049869	 1.708475	 8.643615	-14.944680	-2.310083	 4.852539	 0.896172	 12.531820	 22.811810	-5.138525	-8.500030	 13.030740	-0.520988
-0.006113	 1.232914	 0.011800	 1.642183	-0.167269	 172.094900	-160.585600	 13.629960	-26.965740	 5.630824	-20.330390	 2.985333	-12.100170	 63.252940	 4.133134	 1.161848	 26.686850	-2.659588	 173.643700	 11.484880	 18.273690	-2.580006	-30.741010	 7.702845	 13.260210	 77.758940	-9.452649	-1.288823	 28.370250	 2.710446	 2.298625	 5.828635	 3.651047	-1.266327	 3.251406	 2.097776	 3.216818	-2.847844	-2.605006	-113.120000	 6.494486	 92.942940	 19.601190	 47.413400	 5.026671	 4.869896	-0.251703	-0.073112	 20.087880	 15.781990	 17.622780	 0.619740	 8.470613	-0.355421	-5.948879	 13.618660	 1.522357	 4.988925	-3.448457	-0.333156	 3.183690	-6.827260	 0.883335	-1.245105	-5.498198	 2.753227	 123.408600	 10.381800	-96.378170	-6.475083	 40.357480	-2.497755	-4.984844	-0.195920	 0.050143	 1.410287	 8.360899	-14.625210	-2.328918	 4.911536	 0.895415	 12.543050	 22.967430	-5.176091	-8.501155	 13.158130	-0.529029
-0.006334	 1.232795	 0.012250	 1.566732	-0.517795	 171.789500	-160.513200	 13.950930	-27.375760	 5.694199	-20.439570	 2.957250	-12.196350	 63.304550	 4.216096	 1.161588	 26.683330	-2.659484	 173.600400	 11.992550	 18.131750	-2.590088	-30.875860	 7.576491	 12.679060	 77.755200	-8.843484	-1.288574	 28.366970	 2.710340	 2.372856	 5.515470	 3.820338	-1.673895	 3.054549	 2.332346	 3.416141	-2.814013	-2.537774	-113.006600	 6.510445	 92.954870	 19.378420	 47.807680	 5.343818	 4.818402	-0.249029	-0.073402	 20.230480	 15.580670	 18.198660	 0.707825	 8.197234	-0.354616	-5.947761	 13.680070	 1.528942	 4.993368	-3.350855	-0.330805	 3.180470	-6.829656	 0.901877	-1.247971	-5.552462	 2.895236	 123.332600	 10.394180	-96.370190	-6.198807	 40.713330	-2.606537	-4.927595	-0.193805	 0.050286	 1.020314	 8.057398	-14.036860	-2.360774	 5.011310	 0.894178	 12.562340	 23.230650	-5.239807	-8.503017	 13.373570	-0.542633
-0.006619	 1.232627	 0.012807	 1.465775	-0.889492	 171.336100	-160.414000	 14.257630	-27.873810	 5.739724	-20.588830	 2.791367	-12.442450	 63.373470	 4.459880	 1.161196	 26.678020	-2.659329	 173.541200	 12.567580	 17.905860	-2.601841	-31.044280	 7.387869	 11.804470	 77.747180	-7.925828	-1.288199	 28.362040	 2.710182	 2.480269	 5.201311	 4.089127	-2.324112	 2.865942	 2.711136	 3.731553	-2.817956	-2.439690	-112.835700	 6.534535	 92.972780	 19.174720	 48.220210	 5.716808	 4.765537	-0.246359	-0.073580	 20.407470	 15.425680	 19.039460	 0.840432	 7.785362	-0.352604	-5.946089	 13.772560	 1.538860	 5.000050	-3.203856	-0.327279	 3.175623	-6.833267	 0.929802	-1.252019	-5.634365	 3.109280	 123.218000	 10.412810	-96.358170	-5.891478	 41.162680	-2.693821	-4.871361	-0.191464	 0.050412	 0.488956	 7.677071	-13.095520	-2.408756	 5.161580	 0.892420	 12.592060	 23.627160	-5.336220	-8.505732	 13.698120	-0.563134
-0.006967	 1.232420	 0.013465	 1.345821	-1.264605	 170.758100	-160.287500	 14.536940	-28.511740	 5.793882	-20.765950	 2.576522	-12.831450	 63.456060	 4.856994	 1.160692	 26.671200	-2.659129	 173.473300	 13.180080	 17.607080	-2.614124	-31.231370	 7.146617	 10.675340	 77.728460	-6.739795	-1.287717	 28.355690	 2.709978	 2.617781	 4.899889	 4.464241	-3.208866	 2.705317	 3.238184	 4.157987	-2.869384	-2.316296	-112.615900	 6.565591	 92.995690	 19.008790	 48.613960	 6.120926	 4.713618	-0.243671	-0.073879	 20.609870	 15.347970	 20.140890	 1.010947	 7.255248	-0.348602	-5.943963	 13.891550	 1.551622	 5.008632	-3.014736	-0.322769	 3.169390	-6.837917	 0.965726	-1.256762	-5.739683	 3.384715	 123.070600	 10.436750	-96.342660	-5.568633	 41.693450	-2.756733	-4.819182	-0.189423	 0.050637	-0.157343	 7.225025	-11.805050	-2.470498	 5.354910	 0.890343	 12.631540	 24.137400	-5.461076	-8.509048	 14.115750	-0.589536
-0.007457	 1.232143	 0.014360	 1.188069	-1.705362	 169.949000	-160.101900	 14.832570	-29.409740	 5.867252	-21.005280	 2.272699	-13.450830	 63.566210	 5.496378	 1.159981	 26.661580	-2.658846	 173.390900	 13.930380	 17.178870	-2.628140	-31.459320	 6.808159	 9.079946	 77.684450	-5.061489	-1.287037	 28.346750	 2.709690	 2.811510	 4.562959	 5.047094	-4.527230	 2.559981	 4.048387	 4.788967	-2.997339	-2.145930	-112.306000	 6.609493	 93.027790	 18.867180	 49.025080	 6.620011	 4.657183	-0.240734	-0.074052	 20.871810	 15.378200	 21.760450	 1.251199	 6.507551	-0.340265	-5.941010	 14.059270	 1.569615	 5.020702	-2.748132	-0.316460	 3.160608	-6.844477	 1.016365	-1.262564	-5.888232	 3.773198	 122.862700	 10.470420	-96.320650	-5.179626	 42.413310	-2.802098	-4.764956	-0.187304	 0.050810	-1.029382	 6.597306	-9.858374	-2.557560	 5.627457	 0.887770	 12.689560	 24.856900	-5.638691	-8.513401	 14.704660	-0.626806
-0.007844	 1.231854	 0.015177	 1.065378	-1.966901	 169.130000	-159.896800	 14.924500	-30.326980	 5.938313	-21.236250	 1.958846	-14.243180	 63.667840	 6.324652	 1.159251	 26.651690	-2.658557	 173.337700	 14.464390	 16.723640	-2.638164	-31.646480	 6.462240	 7.438197	 77.628460	-3.335123	-1.286338	 28.337550	 2.709394	 3.009850	 4.411634	 5.698529	-5.969429	 2.567775	 4.962317	 5.469197	-3.227175	-1.977055	-111.987200	 6.654879	 93.060600	 18.963350	 49.154010	 6.936692	 4.634303	-0.239559	-0.074140	 21.067700	 15.671460	 23.447180	 1.498223	 5.738083	-0.328408	-5.938028	 14.231790	 1.588126	 5.033083	-2.473907	-0.310031	 3.151582	-6.851233	 1.068446	-1.267430	-6.041180	 4.173037	 122.648900	 10.504970	-96.297910	-4.955942	 43.025160	-2.721191	-4.753550	-0.186836	 0.050797	-1.826335	 6.050588	-7.705108	-2.647141	 5.907801	 0.885556	 12.752220	 25.597170	-5.823418	-8.517476	 15.310580	-0.665212
-0.008008	 1.231708	 0.015593	 1.009586	-2.067697	 168.707100	-159.786200	 14.930130	-30.803280	 5.972852	-21.348290	 1.794505	-14.687970	 63.713500	 6.790654	 1.158870	 26.646540	-2.658406	 173.317600	 14.697560	 16.483770	-2.642443	-31.732920	 6.282553	 6.581190	 77.594380	-2.434296	-1.285974	 28.332760	 2.709240	 3.107335	 4.369399	 6.057466	-6.750505	 2.605067	 5.466295	 5.833682	-3.373093	-1.891003	-111.821200	 6.678580	 93.077560	 19.069280	 49.151190	 7.057273	 4.630058	-0.239321	-0.074167	 21.151410	 15.886740	 24.346730	 1.626867	 5.337186	-0.320915	-5.936497	 14.321640	 1.597768	 5.039520	-2.331082	-0.306707	 3.146884	-6.854754	 1.095571	-1.269532	-6.120841	 4.381369	 122.537500	 10.522930	-96.286000	-4.881809	 43.321980	-2.649223	-4.755523	-0.186920	 0.050900	-2.217824	 5.778889	-6.532228	-2.693812	 6.053815	 0.884577	 12.786070	 25.982780	-5.920477	-8.519438	 15.626230	-0.685246
-0.008006	 1.231709	 0.015589	 1.010065	-2.066781	 168.710800	-159.787200	 14.930060	-30.799100	 5.972567	-21.347420	 1.795913	-14.684290	 63.713200	 6.786781	 1.158873	 26.646580	-2.658407	 173.317800	 14.695420	 16.485790	-2.642396	-31.732050	 6.284108	 6.588106	 77.594640	-2.441554	-1.285977	 28.332800	 2.709242	 3.106637	 4.369311	 6.054308	-6.743755	 2.605295	 5.461972	 5.830517	-3.372067	-1.891786	-111.822600	 6.678358	 93.077420	 19.067850	 49.151340	 7.056170	 4.630549	-0.239379	-0.074156	 21.150250	 15.885140	 24.339380	 1.625749	 5.340670	-0.320984	-5.936510	 14.320860	 1.597685	 5.039464	-2.332323	-0.306736	 3.146925	-6.854724	 1.095335	-1.269513	-6.120154	 4.379570	 122.538500	 10.522790	-96.286130	-4.881923	 43.319400	-2.650066	-4.755828	-0.186919	 0.050715	-2.214320	 5.781277	-6.542467	-2.693406	 6.052545	 0.884585	 12.785770	 25.979430	-5.919631	-8.519421	 15.623490	-0.685072
